<!DOCTYPE svg PUBLIC "-//W3C//DTD SVG 20010904//EN" "http://www.w3.org/TR/2001/REC-SVG-20010904/DTD/svg10.dtd">
<svg version="1.0" xmlns="http://www.w3.org/2000/svg" width="1028px" height="874px" viewBox="0 0 10280 8740" preserveAspectRatio="xMidYMid meet">
<g id="layer101" fill="#142652" stroke="none">
<path d="M6520 8471 c-200 -64 -364 -230 -426 -431 -12 -39 -17 -91 -17 -180 0 -106 3 -135 23 -190 46 -131 78 -181 181 -282 112 -110 125 -138 116 -251 -9 -109 -56 -194 -174 -313 -93 -95 -173 -165 -219 -194 -19 -11 -28 -8 -82 29 -33 22 -63 41 -66 41 -3 0 -47 20 -98 44 -119 55 -264 116 -278 116 -5 0 -18 4 -28 9 -66 33 -169 51 -294 50 -72 0 -114 -6 -261 -36 -15 -3 -30 -9 -33 -14 -3 -5 -14 -9 -25 -9 -20 0 -117 -39 -213 -86 -28 -13 -54 -24 -58 -24 -4 0 -59 -25 -120 -55 -62 -30 -116 -55 -120 -55 -20 0 -289 -142 -334 -176 -17 -13 -35 -24 -39 -24 -5 0 -76 -49 -159 -108 -83 -60 -189 -135 -234 -168 -218 -154 -422 -310 -517 -393 -36 -31 -99 -85 -141 -121 -42 -36 -93 -81 -114 -100 -20 -19 -61 -55 -91 -80 -91 -77 -513 -501 -575 -579 -94 -117 -143 -185 -144 -198 0 -7 -4 -13 -10 -13 -5 0 -10 -5 -10 -12 0 -6 -6 -19 -14 -27 -26 -29 -112 -205 -150 -306 -21 -55 -42 -108 -47 -117 -5 -10 -9 -27 -9 -37 0 -11 -4 -22 -9 -25 -5 -3 -11 -20 -14 -38 -3 -18 -15 -82 -26 -143 -39 -200 -41 -220 -41 -426 0 -134 5 -241 15 -309 20 -130 49 -266 65 -305 5 -11 11 -29 13 -40 26 -106 152 -389 208 -472 16 -23 29 -44 29 -47 0 -9 72 -118 89 -136 8 -8 35 -44 62 -80 93 -127 381 -391 499 -457 19 -11 60 -36 90 -55 63 -41 253 -133 293 -143 15 -4 30 -11 33 -16 3 -5 14 -9 25 -9 10 0 27 -4 37 -9 9 -5 28 -13 42 -19 37 -16 263 -70 350 -84 100 -16 520 -16 636 -1 90 13 318 65 362 83 12 6 32 14 45 19 12 4 33 13 47 18 14 6 56 22 93 36 l68 25 26 -24 c25 -23 25 -26 14 -81 -13 -68 -15 -193 -2 -225 5 -13 23 -39 39 -58 29 -34 31 -35 103 -34 64 1 82 5 134 34 55 31 115 71 141 95 6 6 32 28 59 50 27 22 93 83 148 135 54 52 108 98 119 103 14 5 51 -4 117 -29 53 -20 100 -41 106 -45 5 -5 17 -9 27 -9 10 0 26 -4 36 -9 22 -12 170 -51 242 -63 30 -5 82 -14 115 -20 81 -14 559 -22 610 -9 22 5 74 15 115 21 108 17 277 61 348 91 57 24 69 28 92 35 29 8 98 42 225 109 176 94 339 220 495 381 99 103 108 114 176 204 120 159 285 471 309 581 4 19 10 39 14 44 18 30 63 224 86 374 20 127 20 504 0 632 -20 131 -34 210 -44 239 -5 14 -19 59 -31 100 -12 41 -26 84 -31 95 -4 11 -11 31 -15 45 -7 25 -38 100 -55 133 -10 20 -16 31 -55 107 -15 30 -40 74 -56 97 -15 23 -28 45 -28 50 0 4 -11 21 -25 37 -14 16 -25 32 -25 36 0 3 -8 15 -18 26 -10 10 -43 51 -74 89 -31 39 -74 88 -97 110 -23 21 -41 42 -41 46 0 4 34 78 75 163 41 86 75 160 75 166 0 6 4 18 9 28 5 9 14 29 20 45 6 15 17 39 23 53 8 15 13 66 13 116 0 89 0 90 -33 119 -20 18 -44 30 -65 30 -60 3 -112 -3 -144 -16 -29 -12 -151 -90 -163 -104 -3 -3 -27 -24 -55 -46 -27 -22 -72 -61 -100 -87 -27 -26 -54 -48 -60 -48 -5 0 -51 40 -100 88 -92 88 -102 97 -210 187 -33 28 -62 52 -65 55 -3 3 -27 23 -55 45 -27 21 -52 42 -55 45 -3 3 -32 25 -64 47 -33 23 -101 83 -152 134 -84 83 -102 109 -73 109 21 0 175 111 284 205 49 43 139 140 209 225 23 28 146 229 146 238 0 4 9 23 19 43 11 20 23 53 26 73 4 20 11 39 16 42 5 3 9 15 9 28 0 12 4 26 9 32 30 33 40 368 15 494 -8 41 -18 89 -21 105 -3 17 -9 35 -13 40 -4 6 -10 22 -14 37 -14 62 -107 235 -178 332 -50 69 -179 206 -256 272 -77 65 -159 111 -251 138 -77 23 -277 21 -351 -3z"/>
</g>
<g id="layer102" fill="#204d83" stroke="none">
<path d="M6520 8471 c-200 -64 -364 -230 -426 -431 -12 -39 -17 -91 -17 -180 0 -106 3 -135 23 -190 46 -131 78 -181 181 -282 112 -110 125 -138 116 -251 -9 -109 -56 -194 -174 -313 -93 -95 -173 -165 -219 -194 -19 -11 -28 -8 -82 29 -33 22 -63 41 -66 41 -3 0 -47 20 -98 44 -119 55 -264 116 -278 116 -5 0 -18 4 -28 9 -66 33 -169 51 -294 50 -72 0 -114 -6 -261 -36 -15 -3 -30 -9 -33 -14 -3 -5 -14 -9 -25 -9 -20 0 -117 -39 -213 -86 -28 -13 -54 -24 -58 -24 -4 0 -59 -25 -120 -55 -62 -30 -116 -55 -120 -55 -20 0 -289 -142 -334 -176 -17 -13 -35 -24 -39 -24 -5 0 -76 -49 -159 -108 -83 -60 -189 -135 -234 -168 -218 -154 -422 -310 -517 -393 -36 -31 -99 -85 -141 -121 -42 -36 -93 -81 -114 -100 -20 -19 -61 -55 -91 -80 -91 -77 -513 -501 -575 -579 -94 -117 -143 -185 -144 -198 0 -7 -4 -13 -10 -13 -5 0 -10 -5 -10 -12 0 -6 -6 -19 -14 -27 -26 -29 -112 -205 -150 -306 -21 -55 -42 -108 -47 -117 -5 -10 -9 -27 -9 -37 0 -11 -4 -22 -9 -25 -5 -3 -11 -20 -14 -38 -3 -18 -15 -82 -26 -143 -39 -200 -41 -220 -41 -426 0 -134 5 -241 15 -309 20 -130 49 -266 65 -305 5 -11 11 -29 13 -40 26 -106 152 -389 208 -472 16 -23 29 -44 29 -47 0 -9 72 -118 89 -136 8 -8 35 -44 62 -80 93 -127 381 -391 499 -457 19 -11 60 -36 90 -55 63 -41 253 -133 293 -143 15 -4 30 -11 33 -16 3 -5 14 -9 25 -9 10 0 27 -4 37 -9 9 -5 28 -13 42 -19 37 -16 263 -70 350 -84 100 -16 520 -16 636 -1 90 13 318 65 362 83 12 6 32 14 45 19 12 4 33 13 47 18 14 6 56 22 93 36 l68 25 26 -24 c25 -23 25 -26 14 -81 -13 -68 -15 -193 -2 -225 5 -13 23 -39 39 -58 29 -34 31 -35 103 -34 64 1 82 5 134 34 55 31 115 71 141 95 6 6 32 28 59 50 27 22 93 83 148 135 54 52 108 98 119 103 14 5 51 -4 117 -29 53 -20 100 -41 106 -45 5 -5 17 -9 27 -9 10 0 26 -4 36 -9 22 -12 170 -51 242 -63 30 -5 82 -14 115 -20 81 -14 559 -22 610 -9 22 5 74 15 115 21 108 17 277 61 348 91 57 24 69 28 92 35 29 8 98 42 225 109 176 94 339 220 495 381 99 103 108 114 176 204 120 159 285 471 309 581 4 19 10 39 14 44 18 30 63 224 86 374 20 127 20 504 0 632 -20 131 -34 210 -44 239 -5 14 -19 59 -31 100 -12 41 -26 84 -31 95 -4 11 -11 31 -15 45 -7 25 -38 100 -55 133 -10 20 -16 31 -55 107 -15 30 -40 74 -56 97 -15 23 -28 45 -28 50 0 4 -11 21 -25 37 -14 16 -25 32 -25 36 0 3 -8 15 -18 26 -10 10 -43 51 -74 89 -31 39 -74 88 -97 110 -23 21 -41 42 -41 46 0 4 34 78 75 163 41 86 75 160 75 166 0 6 4 18 9 28 5 9 14 29 20 45 6 15 17 39 23 53 8 15 13 66 13 116 0 89 0 90 -33 119 -20 18 -44 30 -65 30 -60 3 -112 -3 -144 -16 -29 -12 -151 -90 -163 -104 -3 -3 -27 -24 -55 -46 -27 -22 -72 -61 -100 -87 -27 -26 -54 -48 -60 -48 -5 0 -51 40 -100 88 -92 88 -102 97 -210 187 -33 28 -62 52 -65 55 -3 3 -27 23 -55 45 -27 21 -52 42 -55 45 -3 3 -32 25 -64 47 -33 23 -101 83 -152 134 -84 83 -102 109 -73 109 21 0 175 111 284 205 49 43 139 140 209 225 23 28 146 229 146 238 0 4 9 23 19 43 11 20 23 53 26 73 4 20 11 39 16 42 5 3 9 15 9 28 0 12 4 26 9 32 30 33 40 368 15 494 -8 41 -18 89 -21 105 -3 17 -9 35 -13 40 -4 6 -10 22 -14 37 -14 62 -107 235 -178 332 -50 69 -179 206 -256 272 -77 65 -159 111 -251 138 -77 23 -277 21 -351 -3z m324 -7 c85 -22 177 -67 244 -121 68 -54 196 -183 237 -238 17 -22 33 -42 36 -45 3 -3 26 -37 51 -75 94 -148 162 -323 188 -486 13 -84 13 -257 0 -317 -6 -26 -15 -69 -21 -97 -12 -57 -21 -84 -57 -175 -104 -259 -326 -517 -590 -684 -50 -32 -92 -64 -92 -70 0 -20 207 -215 319 -301 57 -44 109 -84 115 -90 6 -5 72 -62 146 -127 74 -64 153 -135 175 -157 21 -23 43 -41 48 -41 9 0 90 68 167 138 40 36 196 141 235 157 19 8 59 15 89 15 47 0 59 -4 84 -29 73 -74 40 -215 -129 -552 -33 -67 -59 -125 -57 -129 2 -5 26 -33 53 -62 209 -220 375 -501 464 -788 36 -115 56 -202 71 -305 6 -44 16 -104 21 -134 12 -70 12 -402 0 -472 -5 -30 -15 -90 -21 -134 -74 -505 -359 -990 -786 -1334 -102 -82 -331 -218 -454 -270 -30 -13 -68 -29 -85 -36 -101 -46 -355 -111 -505 -131 -97 -12 -456 -16 -525 -5 -232 37 -437 87 -540 130 -11 5 -59 25 -107 46 l-87 37 -74 -73 c-70 -71 -142 -138 -217 -204 -51 -45 -159 -119 -207 -144 -29 -14 -61 -21 -101 -21 -53 0 -61 3 -89 33 -19 19 -36 52 -44 84 -14 56 -6 122 33 272 10 40 16 76 13 79 -2 3 -58 -19 -122 -48 -145 -65 -144 -64 -218 -88 -365 -118 -700 -140 -1075 -73 -574 103 -1091 450 -1413 948 -115 178 -223 412 -267 578 -5 17 -15 55 -23 85 -40 149 -67 367 -67 530 1 464 150 915 422 1273 111 146 467 504 753 757 107 94 353 298 416 345 15 11 60 45 100 76 346 265 700 501 889 591 73 35 193 90 255 118 47 21 81 37 200 90 151 69 355 120 475 120 47 0 183 -22 235 -38 34 -11 175 -66 220 -87 17 -7 50 -21 75 -31 55 -21 205 -99 242 -125 34 -25 54 -24 87 4 16 12 45 35 67 52 74 56 196 180 237 239 48 70 87 180 87 243 0 61 -27 137 -58 166 -137 124 -186 186 -223 278 -36 92 -49 157 -49 249 0 252 135 464 363 569 110 50 274 65 391 35z"/>
<path d="M6635 8261 c-6 -6 -25 -13 -42 -15 -52 -6 -125 -47 -178 -101 -52 -52 -102 -136 -91 -153 3 -5 0 -15 -7 -21 -15 -12 -16 -195 -2 -246 19 -68 90 -165 154 -212 40 -28 111 -121 111 -145 0 -7 6 -22 14 -33 19 -27 17 -274 -3 -330 -26 -73 -55 -130 -100 -195 -37 -53 -179 -196 -241 -243 -30 -23 -64 -50 -74 -59 -11 -10 -24 -18 -29 -18 -22 0 2 -45 34 -64 116 -68 133 -90 108 -134 -21 -38 -65 -40 -126 -7 -26 15 -52 31 -58 35 -20 16 -123 71 -245 131 -117 58 -139 68 -197 90 -13 5 -33 13 -45 18 -75 30 -198 64 -205 57 -3 -3 -15 0 -27 7 -40 22 -392 26 -437 4 -9 -4 -33 -9 -55 -11 -47 -5 -145 -29 -165 -42 -8 -4 -21 -7 -30 -6 -9 2 -21 -4 -28 -12 -7 -8 -18 -13 -26 -10 -7 3 -16 1 -20 -5 -3 -6 -16 -11 -29 -11 -12 0 -26 -4 -31 -8 -6 -5 -50 -26 -100 -47 -49 -21 -101 -46 -115 -55 -14 -9 -61 -33 -105 -55 -44 -22 -82 -42 -85 -46 -3 -3 -10 -8 -16 -10 -13 -5 -190 -116 -280 -176 -35 -24 -67 -43 -73 -43 -5 0 -11 -4 -13 -8 -1 -5 -64 -51 -138 -102 -74 -51 -137 -96 -140 -99 -3 -3 -21 -18 -40 -33 -19 -15 -47 -37 -61 -50 -15 -13 -44 -36 -65 -53 -21 -16 -47 -39 -59 -51 -11 -11 -28 -25 -37 -30 -36 -21 -265 -229 -329 -299 -65 -72 -79 -96 -79 -139 0 -35 29 -60 95 -80 33 -10 68 -22 77 -27 10 -5 25 -9 33 -9 8 0 23 -4 33 -9 16 -8 37 -17 95 -40 62 -25 106 -44 140 -62 22 -10 45 -19 53 -19 8 0 14 -5 14 -11 0 -6 8 -9 18 -7 9 2 22 -1 27 -8 6 -6 48 -32 95 -56 47 -25 108 -57 135 -73 28 -15 59 -33 69 -39 11 -6 25 -14 30 -19 6 -4 43 -27 81 -52 39 -24 75 -49 82 -55 7 -5 15 -10 18 -10 3 0 16 -9 28 -20 45 -42 51 -27 58 135 4 83 12 169 18 192 6 24 10 46 9 50 -1 5 6 20 16 35 13 20 27 28 47 28 43 0 50 -28 33 -135 -21 -139 -16 -240 18 -370 30 -117 96 -237 178 -324 37 -39 115 -101 129 -101 6 0 11 -4 11 -10 0 -5 5 -10 11 -10 6 0 23 -8 37 -18 15 -10 59 -31 97 -46 39 -16 78 -32 87 -37 10 -5 29 -9 42 -9 14 0 28 -5 32 -11 4 -6 19 -9 37 -5 16 3 36 1 43 -5 17 -14 111 -14 129 1 8 7 26 9 44 5 18 -4 39 -1 53 6 13 7 27 12 32 10 10 -2 17 0 107 43 62 30 162 123 155 143 -3 7 0 13 7 13 15 0 39 49 31 62 -4 5 -14 8 -23 5 -10 -2 -26 2 -36 9 -10 8 -25 14 -33 14 -20 0 -79 29 -132 64 -52 34 -140 120 -140 135 0 6 -3 11 -7 11 -5 0 -21 26 -36 58 -16 31 -33 65 -38 74 -5 10 -9 26 -9 37 0 11 -5 21 -11 23 -5 2 -12 24 -14 48 -9 105 -25 150 -52 150 -21 -1 -155 77 -168 96 -13 21 -13 25 11 53 26 31 52 39 70 22 5 -6 38 -15 74 -20 77 -13 79 -12 108 81 l21 67 -32 68 c-29 63 -31 76 -32 173 0 89 4 112 23 152 12 26 22 50 22 53 0 3 18 35 41 70 45 71 72 84 89 39 8 -20 5 -37 -16 -82 -45 -96 -58 -185 -39 -269 15 -65 31 -64 99 9 33 36 87 89 118 118 55 50 57 51 81 35 14 -9 28 -23 31 -32 6 -14 -19 -58 -57 -98 -11 -11 -31 -36 -45 -55 -15 -19 -30 -37 -33 -40 -16 -12 -79 -121 -79 -135 0 -8 -4 -15 -10 -15 -5 0 -10 -9 -10 -19 0 -11 -3 -21 -8 -23 -4 -1 -18 -34 -31 -73 -20 -56 -25 -91 -25 -175 0 -105 5 -132 46 -216 49 -102 147 -194 235 -220 45 -14 199 -16 228 -4 11 5 32 11 46 14 46 10 201 120 277 196 39 40 72 76 72 80 0 4 11 20 25 36 14 16 41 63 61 104 19 41 40 83 45 92 5 10 9 27 9 38 0 11 5 20 11 20 6 0 9 9 6 20 -3 10 2 25 10 31 7 7 13 22 12 33 -2 12 2 30 9 42 6 12 13 41 15 65 3 24 7 51 10 59 22 62 12 266 -18 353 -16 47 -22 57 -79 124 l-28 33 26 35 c31 40 45 43 72 14 25 -28 68 -49 107 -53 18 -2 45 -9 62 -15 16 -7 38 -10 48 -7 10 2 37 -2 59 -10 51 -18 171 -18 223 0 59 20 95 59 95 103 0 32 -12 47 -112 148 -147 149 -147 159 -5 249 33 20 64 41 70 47 7 5 34 26 62 47 123 92 335 300 391 383 21 32 42 59 47 59 4 0 7 6 7 14 0 8 4 16 8 18 5 2 25 39 46 83 21 44 42 88 47 97 5 10 9 25 9 33 0 8 4 23 9 33 19 38 32 95 35 152 2 33 6 63 10 67 8 8 8 78 0 86 -4 4 -9 39 -11 78 -2 40 -9 79 -16 87 -6 8 -11 24 -9 34 2 11 -2 26 -10 35 -7 9 -13 21 -13 27 -3 35 -62 153 -126 249 -74 111 -255 294 -325 327 -79 39 -228 63 -249 41z"/>
<path d="M8060 5581 c-19 -9 -44 -24 -55 -33 -11 -9 -55 -44 -97 -77 -73 -58 -392 -369 -523 -511 -106 -115 -222 -244 -251 -280 -16 -19 -36 -42 -44 -50 -8 -8 -69 -78 -135 -155 -66 -77 -122 -142 -125 -145 -3 -3 -37 -43 -75 -90 -38 -47 -72 -87 -75 -90 -3 -3 -24 -27 -45 -55 -22 -27 -43 -52 -46 -55 -6 -6 -207 -255 -254 -314 -16 -22 -45 -57 -63 -80 -18 -23 -39 -48 -45 -56 -7 -8 -26 -33 -42 -55 -17 -22 -40 -51 -53 -66 -12 -14 -88 -113 -168 -220 -80 -107 -151 -201 -159 -210 -50 -62 -348 -506 -368 -549 -4 -8 -15 -28 -26 -45 -19 -32 -36 -61 -96 -165 -45 -79 -227 -451 -245 -500 -7 -19 -18 -48 -25 -65 -14 -32 -65 -183 -84 -250 -6 -22 -13 -69 -14 -105 -2 -63 -1 -65 21 -62 25 2 93 45 152 95 99 84 229 210 224 218 -3 5 -25 9 -49 9 -35 0 -48 5 -64 26 -32 40 -28 126 9 219 19 49 154 317 191 380 23 39 49 84 59 101 31 54 221 347 266 411 24 34 44 66 44 71 0 6 4 12 8 14 4 2 35 41 67 88 54 77 138 192 168 230 7 8 26 33 42 55 16 22 32 42 35 45 3 3 32 41 65 85 67 89 69 92 120 155 20 25 42 52 48 60 7 8 26 33 42 55 17 22 35 46 42 55 7 8 54 67 105 131 51 63 107 132 123 154 29 37 79 99 113 140 9 11 76 94 150 184 169 206 165 201 177 215 6 6 33 38 60 71 28 33 52 62 55 65 3 3 28 32 55 65 28 33 66 78 86 100 20 22 50 56 65 75 16 19 31 37 34 40 3 3 48 52 100 109 216 238 286 280 344 210 14 -17 31 -27 36 -24 13 8 99 188 140 290 40 100 36 114 -20 86z"/>
<path d="M6385 5432 l-30 -7 -12 -130 c-6 -72 -16 -148 -21 -170 -22 -97 -52 -194 -79 -255 -33 -76 -38 -87 -70 -138 -18 -29 -33 -56 -33 -61 0 -5 -3 -11 -8 -13 -4 -1 -25 -25 -47 -53 -104 -130 -278 -257 -425 -310 -42 -15 -47 -21 -60 -63 -25 -87 -80 -171 -157 -243 -67 -62 -192 -128 -288 -152 -197 -50 -264 -49 -445 4 -36 10 -71 19 -77 19 -14 0 -24 -47 -28 -125 -2 -33 -8 -84 -14 -114 -6 -29 -11 -86 -11 -126 0 -40 5 -97 11 -126 6 -30 12 -81 14 -114 6 -115 49 -305 96 -422 44 -111 44 -112 85 -197 35 -74 120 -225 134 -236 3 -3 27 -34 52 -70 25 -36 64 -85 85 -109 l40 -44 19 29 c11 16 26 43 34 59 8 17 22 41 31 55 9 14 32 54 51 90 101 187 421 676 450 688 4 2 8 8 8 13 0 5 7 17 15 26 14 18 143 188 180 239 11 15 25 32 30 38 6 6 37 47 70 91 33 44 62 82 65 85 4 3 19 23 35 45 17 22 32 42 35 45 3 3 22 25 41 50 71 89 433 535 439 540 3 3 68 79 145 170 200 238 271 318 500 568 83 90 158 175 168 187 l18 24 -58 26 c-70 32 -121 54 -148 65 -11 4 -31 12 -45 18 -62 25 -121 40 -357 92 -54 12 -398 21 -438 12z"/>
<path d="M2500 4993 c-47 -40 -158 -150 -201 -199 -44 -51 -146 -188 -167 -224 -86 -152 -106 -190 -150 -290 -27 -63 -72 -205 -72 -229 0 -11 -4 -22 -9 -25 -5 -3 -11 -23 -14 -43 -3 -21 -11 -65 -17 -98 -49 -274 -34 -598 40 -860 51 -182 57 -196 141 -370 53 -110 80 -158 92 -163 4 -2 7 -8 7 -14 0 -15 83 -130 161 -224 131 -157 274 -285 438 -391 134 -87 395 -213 441 -213 10 0 21 -4 24 -9 3 -5 18 -11 33 -14 16 -3 46 -10 68 -17 138 -39 367 -70 512 -70 123 0 389 34 473 60 14 4 45 13 70 20 25 7 54 16 65 20 11 5 64 25 119 45 54 21 131 55 170 77 39 21 79 42 89 45 9 3 17 9 17 14 0 5 5 9 11 9 21 0 131 83 150 113 28 47 24 63 -32 122 -46 49 -101 119 -230 297 -55 75 -139 231 -139 259 0 18 -41 135 -61 171 -5 10 -9 25 -9 34 0 8 -7 22 -15 30 -8 8 -12 21 -8 29 3 9 0 22 -7 29 -6 8 -13 35 -16 60 -2 25 -9 57 -14 71 -6 15 -10 39 -10 55 0 16 -5 41 -11 57 -7 15 -12 60 -13 100 -1 43 -6 77 -13 85 -16 15 -18 299 -3 314 6 6 13 41 17 77 5 61 4 70 -16 91 -22 24 -22 25 -3 35 17 9 19 7 14 -17 -3 -20 -2 -24 7 -16 6 6 15 34 20 62 9 57 9 57 -66 105 -24 15 -48 27 -55 27 -16 0 -98 81 -98 96 0 7 -3 14 -8 16 -13 5 -79 91 -95 124 -23 44 -62 83 -142 139 -38 27 -71 53 -73 57 -2 5 -10 8 -17 8 -7 0 -15 4 -17 8 -3 10 -267 180 -313 202 -16 8 -32 17 -35 20 -22 23 -301 159 -360 176 -30 8 -84 26 -120 39 -189 69 -334 108 -445 120 -59 7 -61 6 -105 -32z"/>
<path d="M7730 4996 c-28 -22 -254 -273 -279 -310 -8 -12 -22 -28 -31 -36 -8 -8 -38 -42 -65 -75 -28 -33 -52 -62 -55 -65 -3 -3 -27 -32 -55 -65 -27 -33 -52 -62 -55 -65 -3 -3 -24 -27 -45 -55 -22 -27 -42 -52 -45 -55 -5 -4 -171 -207 -213 -260 -68 -85 -93 -116 -97 -120 -3 -3 -24 -27 -45 -55 -22 -27 -44 -55 -50 -61 -5 -6 -23 -28 -40 -49 -16 -21 -50 -64 -75 -96 -25 -31 -63 -80 -85 -109 -22 -29 -45 -57 -50 -64 -6 -6 -24 -29 -40 -51 -17 -22 -32 -42 -35 -45 -19 -18 -279 -364 -382 -509 -26 -36 -52 -71 -58 -78 -5 -7 -10 -16 -10 -22 0 -5 -4 -11 -8 -13 -5 -1 -50 -66 -100 -143 -50 -77 -96 -145 -101 -152 -6 -7 -11 -14 -11 -17 0 -3 -20 -37 -45 -75 -25 -38 -45 -74 -45 -80 0 -6 -4 -11 -10 -11 -5 0 -10 -5 -10 -11 0 -6 -8 -23 -18 -37 -50 -72 -165 -299 -157 -312 20 -32 310 -187 430 -230 33 -12 69 -25 80 -30 19 -7 69 -22 140 -41 78 -20 137 -30 194 -33 34 -2 64 -6 68 -10 13 -13 348 -5 448 10 55 9 116 18 135 21 19 3 41 10 49 17 8 6 24 9 36 8 13 -2 26 2 30 7 3 6 17 11 31 11 13 0 32 4 42 9 9 5 40 17 67 26 28 9 59 20 70 25 11 5 35 14 53 22 17 7 32 16 32 20 0 5 6 8 14 8 24 0 277 145 296 170 3 3 21 17 40 30 51 35 95 73 184 159 196 190 332 390 467 686 15 33 71 207 81 250 23 103 30 135 41 200 15 93 15 471 0 560 -22 129 -42 207 -87 347 -25 80 -133 311 -148 316 -4 2 -8 8 -8 13 0 9 -107 180 -119 189 -3 3 -19 23 -36 45 -34 46 -256 275 -283 291 -13 9 -22 9 -32 0z"/>
<path d="M4980 7369 c-53 -21 -70 -48 -70 -108 1 -82 31 -111 115 -111 38 0 52 5 76 29 24 25 29 38 29 79 0 61 -25 97 -78 112 -43 12 -40 12 -72 -1z"/>
<path d="M3116 6808 c-25 -35 -20 -94 9 -123 54 -55 145 -16 145 62 0 62 -21 83 -85 83 -44 0 -57 -4 -69 -22z"/>
<path d="M3254 6206 c-10 -27 1 -51 25 -54 31 -5 45 11 37 42 -5 19 -13 26 -32 26 -13 0 -27 -6 -30 -14z"/>
<path d="M7792 6054 c-18 -12 -22 -25 -22 -64 0 -56 22 -80 76 -80 43 0 69 31 68 83 -2 67 -67 100 -122 61z"/>
<path d="M2360 5640 c-22 -22 -25 -46 -10 -84 8 -22 16 -26 53 -26 54 0 67 13 67 67 0 32 -5 45 -19 53 -31 16 -69 12 -91 -10z"/>
<path d="M5711 1254 c-52 -66 6 -159 86 -139 47 11 63 33 63 85 0 60 -20 80 -83 80 -37 0 -49 -5 -66 -26z"/>
<path d="M3037 1252 c-19 -21 -22 -54 -7 -83 8 -14 21 -19 54 -19 36 0 45 4 54 25 17 36 15 52 -8 75 -25 25 -72 26 -93 2z"/>
</g>
<g id="layer103" fill="#be5c66" stroke="none">
<path d="M6543 8221 c-66 -31 -141 -94 -173 -146 -35 -57 -59 -146 -60 -219 0 -129 43 -220 153 -320 117 -106 151 -176 163 -331 6 -75 -10 -181 -36 -235 -4 -8 -21 -44 -37 -80 -46 -100 -145 -213 -277 -318 -32 -26 -75 -61 -94 -78 l-35 -31 62 -37 c80 -49 101 -72 101 -112 0 -43 -42 -78 -85 -71 -16 3 -73 31 -125 63 -106 64 -383 204 -445 225 -22 7 -44 16 -50 19 -5 4 -30 12 -55 19 -25 7 -56 17 -70 21 -36 12 -84 23 -91 22 -3 0 -26 5 -50 11 -47 14 -245 15 -344 3 -85 -10 -214 -40 -247 -57 -10 -5 -27 -9 -37 -9 -11 0 -22 -4 -25 -9 -3 -4 -20 -12 -38 -16 -37 -9 -33 -8 -68 -22 -14 -6 -45 -19 -70 -29 -43 -17 -190 -91 -310 -156 -96 -52 -251 -149 -395 -247 -241 -164 -312 -216 -420 -311 -23 -19 -79 -66 -125 -105 -339 -283 -410 -358 -410 -433 0 -45 9 -54 65 -72 22 -7 48 -16 57 -21 10 -5 27 -9 37 -9 11 0 22 -4 25 -9 3 -5 22 -12 42 -16 20 -3 44 -10 53 -15 9 -5 32 -15 51 -23 243 -103 426 -200 661 -350 75 -48 138 -87 141 -87 3 0 8 60 11 133 6 136 34 278 62 306 21 21 75 18 92 -5 11 -15 12 -36 6 -99 -32 -320 20 -531 172 -694 101 -108 177 -157 351 -224 114 -45 135 -49 255 -49 181 1 351 76 431 191 42 60 47 81 21 81 -28 0 -102 28 -166 62 -79 43 -182 154 -229 248 -48 97 -52 111 -65 220 l-8 65 -88 45 c-48 25 -96 53 -107 62 -26 23 -26 70 0 93 20 18 47 18 178 -1 23 -3 42 -4 42 -2 0 3 11 35 24 72 l25 68 -29 56 c-51 103 -56 251 -10 349 11 24 20 45 20 48 0 18 72 114 89 120 28 9 59 -2 72 -26 8 -15 5 -28 -10 -57 -47 -85 -59 -128 -59 -208 0 -51 5 -86 13 -97 12 -17 21 -11 115 82 56 56 113 104 127 107 34 9 69 -10 75 -39 6 -31 -2 -46 -71 -127 -104 -123 -162 -228 -210 -381 -14 -46 -14 -212 0 -258 35 -116 106 -211 197 -264 126 -74 216 -74 367 -1 220 105 397 328 470 589 9 33 21 71 25 85 18 53 24 120 23 250 0 137 -8 206 -24 216 -5 3 -9 13 -9 22 0 10 -18 39 -40 66 -43 52 -49 79 -24 114 18 26 75 30 95 6 19 -23 57 -39 124 -53 33 -7 73 -17 88 -22 15 -4 86 -7 157 -6 113 2 132 5 157 23 22 16 29 31 31 64 3 42 2 44 -102 150 -90 91 -106 112 -106 139 0 50 12 64 119 135 55 36 106 72 113 79 7 6 36 30 63 51 92 73 296 280 350 356 67 95 104 169 150 300 37 104 38 107 39 265 0 96 -4 172 -11 190 -6 17 -19 57 -28 90 -40 143 -149 312 -299 461 -144 144 -196 171 -336 173 -85 0 -102 -2 -157 -28z"/>
<path d="M2375 4858 c-158 -169 -302 -388 -374 -573 -5 -11 -13 -31 -19 -45 -32 -79 -77 -236 -92 -325 -7 -38 -16 -92 -21 -118 -12 -66 -11 -435 1 -516 25 -159 72 -342 112 -441 6 -14 14 -34 18 -45 50 -133 160 -326 266 -464 215 -283 451 -465 819 -632 75 -34 270 -90 380 -109 39 -7 92 -16 118 -21 76 -14 402 -11 508 5 183 29 302 60 445 117 169 67 380 185 430 240 41 45 39 64 -8 116 -73 79 -132 153 -193 242 l-58 83 -33 -82 c-69 -170 -168 -317 -231 -341 -36 -13 -110 -11 -141 5 -15 8 -51 43 -80 78 -29 34 -126 136 -214 225 -150 151 -164 162 -212 173 -181 40 -308 80 -398 126 l-48 24 -27 -32 c-69 -84 -195 -196 -254 -228 -54 -29 -74 -35 -129 -35 -59 0 -70 3 -115 36 -66 47 -115 113 -172 229 -55 114 -57 118 -82 198 -71 223 -90 407 -68 645 14 143 16 150 58 232 24 47 50 85 57 85 8 0 12 -16 12 -49 0 -45 3 -51 35 -70 42 -24 44 -47 15 -135 -35 -104 -25 -310 24 -490 67 -246 186 -476 246 -476 44 0 213 147 337 293 25 29 38 37 66 37 36 0 55 -16 78 -65 30 -63 258 -138 536 -175 125 -17 332 -5 507 29 103 20 108 25 78 92 -24 54 -36 87 -57 164 -9 33 -21 71 -25 85 -5 14 -11 41 -15 60 -4 19 -11 53 -16 75 -31 128 -49 520 -31 662 6 57 5 75 -5 86 -12 12 -10 16 11 31 44 28 36 68 -22 108 -59 41 -118 44 -185 8 -38 -20 -48 -22 -61 -11 -28 23 -18 56 29 102 l45 43 -28 31 c-16 16 -48 61 -72 98 -55 87 -153 163 -450 349 -178 112 -491 268 -536 268 -73 0 -215 -47 -324 -107 -92 -52 -224 -187 -273 -282 l-39 -74 16 -50 c21 -64 20 -77 -4 -77 -11 0 -43 -11 -72 -25 -28 -14 -55 -25 -59 -25 -4 0 -19 31 -34 69 -21 54 -27 81 -23 118 8 75 63 181 161 306 l45 58 -24 55 c-13 30 -24 63 -24 73 0 10 -6 24 -14 30 -11 9 -29 -5 -91 -71z m1626 -1131 c27 -21 30 -47 11 -90 -21 -48 -76 -100 -129 -122 -88 -37 -265 -8 -380 62 -58 36 -76 66 -60 100 16 36 44 37 147 3 70 -23 115 -32 170 -33 83 -1 116 11 164 62 32 33 52 38 77 18z m-917 -616 c53 -49 166 -190 166 -206 0 -25 -27 -37 -52 -24 -13 7 -25 15 -28 18 -3 4 -35 32 -72 64 l-67 58 -12 -43 c-8 -29 -10 -103 -7 -226 5 -182 5 -183 -16 -180 -55 8 -94 297 -63 468 14 72 23 92 52 108 28 16 53 6 99 -37z"/>
</g>
<g id="layer104" fill="#27beb3" stroke="none">
<path d="M3261 6191 c-11 -7 -10 -11 5 -19 14 -7 24 -7 36 2 30 22 -9 37 -41 17z"/>
<path d="M3655 5969 c-31 -9 -161 -103 -256 -185 -31 -27 -93 -80 -139 -119 -343 -288 -410 -358 -410 -433 0 -45 9 -54 65 -72 22 -7 48 -16 57 -21 10 -5 27 -9 37 -9 11 0 22 -4 25 -9 3 -5 22 -12 42 -16 20 -3 44 -10 53 -15 9 -5 32 -15 51 -23 243 -103 426 -200 661 -350 75 -48 138 -87 141 -87 3 0 8 60 11 133 6 136 34 278 62 306 21 21 75 18 92 -5 11 -15 12 -36 6 -99 -32 -320 20 -531 172 -694 101 -108 177 -157 351 -224 114 -45 135 -49 255 -49 181 1 351 76 431 191 42 60 47 81 21 81 -28 0 -102 28 -166 62 -79 43 -182 154 -229 248 -48 97 -52 111 -65 220 l-8 65 -88 45 c-48 25 -96 53 -107 62 -26 23 -26 70 0 93 20 18 48 18 176 -1 l41 -6 17 47 c14 34 16 53 9 68 -15 33 -186 209 -272 281 -164 136 -320 236 -521 334 -74 36 -137 68 -140 71 -5 7 -53 29 -85 41 -11 4 -31 12 -45 18 -49 20 -124 42 -147 42 -13 0 -23 5 -23 10 0 12 -33 12 -75 -1z"/>
<path d="M8004 5531 c-188 -132 -514 -459 -905 -906 -63 -71 -118 -135 -124 -141 -5 -6 -41 -49 -80 -95 -38 -45 -86 -101 -106 -124 -19 -22 -87 -103 -149 -180 -63 -77 -117 -142 -120 -145 -10 -9 -354 -442 -437 -551 -283 -368 -443 -594 -589 -828 -46 -73 -84 -135 -84 -136 0 -2 -21 -38 -46 -81 -51 -87 -193 -363 -241 -469 -117 -261 -198 -537 -167 -568 8 -8 54 16 108 55 57 41 254 218 260 234 3 8 -7 12 -30 12 -75 0 -116 78 -91 173 80 302 495 960 1061 1683 56 70 110 140 121 155 69 92 737 917 754 931 4 3 26 30 51 60 104 126 394 452 479 536 50 51 107 99 127 109 43 20 93 14 114 -15 8 -11 19 -20 26 -20 12 0 93 167 135 283 21 56 25 77 15 77 -7 0 -44 -22 -82 -49z"/>
<path d="M2375 4858 c-158 -169 -302 -388 -374 -573 -5 -11 -13 -31 -19 -45 -32 -79 -77 -236 -92 -325 -7 -38 -16 -92 -21 -118 -12 -66 -11 -435 1 -516 25 -159 72 -342 112 -441 6 -14 14 -34 18 -45 50 -133 160 -326 266 -464 215 -283 451 -465 819 -632 75 -34 270 -90 380 -109 39 -7 92 -16 118 -21 76 -14 402 -11 508 5 183 29 302 60 445 117 169 67 380 185 430 240 41 45 39 64 -8 116 -73 79 -132 153 -193 242 l-58 83 -33 -82 c-69 -170 -168 -317 -231 -341 -36 -13 -110 -11 -141 5 -15 8 -51 43 -80 78 -29 34 -126 136 -214 225 -150 151 -164 162 -212 173 -181 40 -308 80 -398 126 l-48 24 -27 -32 c-69 -84 -195 -196 -254 -228 -54 -29 -74 -35 -129 -35 -59 0 -70 3 -115 36 -66 47 -115 113 -172 229 -55 114 -57 118 -82 198 -71 223 -90 407 -68 645 14 143 16 150 58 232 24 47 50 85 57 85 8 0 12 -16 12 -49 0 -45 3 -51 35 -70 42 -24 44 -47 15 -135 -35 -104 -25 -310 24 -490 67 -246 186 -476 246 -476 44 0 213 147 337 293 25 29 38 37 66 37 36 0 55 -16 78 -65 30 -63 258 -138 536 -175 125 -17 332 -5 507 29 103 20 108 25 78 92 -24 54 -36 87 -57 164 -9 33 -21 71 -25 85 -5 14 -11 41 -15 60 -4 19 -11 53 -16 75 -31 128 -49 520 -31 662 6 57 5 75 -5 86 -12 12 -10 16 11 31 44 28 36 68 -22 108 -59 41 -118 44 -185 8 -38 -20 -48 -22 -61 -11 -28 23 -18 56 29 102 l45 43 -28 31 c-16 16 -48 61 -72 98 -55 87 -153 163 -450 349 -178 112 -491 268 -536 268 -73 0 -215 -47 -324 -107 -92 -52 -224 -187 -273 -282 l-39 -74 16 -50 c21 -64 20 -77 -4 -77 -11 0 -43 -11 -72 -25 -28 -14 -55 -25 -59 -25 -4 0 -19 31 -34 69 -21 54 -27 81 -23 118 8 75 63 181 161 306 l45 58 -24 55 c-13 30 -24 63 -24 73 0 10 -6 24 -14 30 -11 9 -29 -5 -91 -71z m1626 -1131 c27 -21 30 -47 11 -90 -21 -48 -76 -100 -129 -122 -88 -37 -265 -8 -380 62 -58 36 -76 66 -60 100 16 36 44 37 147 3 70 -23 115 -32 170 -33 83 -1 116 11 164 62 32 33 52 38 77 18z m-917 -616 c53 -49 166 -190 166 -206 0 -23 -27 -37 -49 -26 -43 24 -56 14 -112 -86 -66 -118 -80 -153 -68 -175 13 -25 0 -50 -25 -46 -40 6 -70 142 -70 318 1 184 11 231 59 258 28 16 53 6 99 -37z"/>
<path d="M3057 1242 c-23 -25 -21 -54 3 -75 26 -22 28 -22 51 6 25 30 24 53 -3 71 -28 20 -31 20 -51 -2z"/>
</g>
<g id="layer105" fill="#48b0d6" stroke="none">
<path d="M4984 7340 c-54 -22 -70 -91 -31 -136 31 -36 101 -38 129 -4 27 34 31 64 13 99 -22 44 -65 60 -111 41z"/>
<path d="M3137 6802 c-25 -28 -22 -87 5 -106 51 -36 108 -7 108 54 0 29 -6 43 -22 54 -30 21 -71 20 -91 -2z"/>
<path d="M7810 6061 c0 -5 -9 -13 -20 -16 -16 -5 -20 -15 -20 -49 0 -50 15 -73 50 -78 39 -4 90 21 92 46 3 45 -4 69 -25 87 -23 19 -77 26 -77 10z"/>
<path d="M3655 5969 c-31 -9 -161 -103 -256 -185 -31 -27 -93 -80 -139 -119 -343 -288 -410 -358 -410 -433 0 -45 9 -54 65 -72 22 -7 48 -16 57 -21 10 -5 27 -9 37 -9 11 0 22 -4 25 -9 3 -5 22 -12 42 -16 20 -3 44 -10 53 -15 9 -5 32 -15 51 -23 243 -103 426 -200 661 -350 75 -48 138 -87 141 -87 3 0 8 60 11 133 6 136 34 278 62 306 21 21 75 18 92 -5 11 -15 12 -36 6 -99 -32 -320 20 -531 172 -694 101 -108 177 -157 351 -224 114 -45 135 -49 255 -49 181 1 351 76 431 191 42 60 47 81 21 81 -28 0 -102 28 -166 62 -79 43 -182 154 -229 248 -48 97 -52 111 -65 220 l-8 65 -88 45 c-48 25 -96 53 -107 62 -26 23 -26 70 0 93 20 18 48 18 176 -1 l41 -6 17 47 c14 34 16 53 9 68 -15 33 -186 209 -272 281 -164 136 -320 236 -521 334 -74 36 -137 68 -140 71 -5 7 -53 29 -85 41 -11 4 -31 12 -45 18 -49 20 -124 42 -147 42 -13 0 -23 5 -23 10 0 12 -33 12 -75 -1z m590 -366 c2 -7 10 -13 16 -13 7 0 36 -18 66 -40 45 -35 52 -44 47 -65 -4 -18 -1 -27 10 -31 20 -8 21 -28 1 -44 -8 -7 -13 -16 -10 -20 3 -4 -2 -10 -10 -14 -8 -3 -15 -11 -15 -18 0 -8 -9 -20 -20 -28 -11 -8 -20 -20 -20 -27 0 -7 -7 -10 -15 -7 -8 4 -21 2 -28 -4 -6 -5 -24 -12 -39 -16 -16 -3 -28 -11 -28 -16 0 -18 -77 -12 -84 6 -4 11 -14 15 -31 12 -14 -3 -26 0 -29 8 -3 7 -21 18 -40 25 -20 7 -36 19 -36 26 0 8 -7 25 -16 38 -21 32 -15 125 9 149 9 10 20 23 24 30 5 6 25 20 46 30 20 9 37 20 37 24 0 14 159 8 165 -5z"/>
<path d="M2360 5640 c-43 -43 -10 -110 53 -110 43 0 57 15 57 60 0 64 -66 94 -110 50z"/>
<path d="M2363 4843 c-214 -233 -346 -466 -433 -763 -59 -203 -73 -320 -67 -570 6 -247 16 -325 61 -480 9 -30 19 -70 22 -88 4 -18 11 -35 15 -38 5 -3 9 -13 9 -23 0 -9 9 -36 20 -59 11 -22 20 -45 20 -49 0 -22 138 -282 166 -314 8 -8 14 -18 14 -22 0 -3 34 -50 75 -104 195 -256 434 -451 715 -584 121 -57 115 -54 230 -92 211 -70 378 -96 610 -96 195 -1 437 31 535 69 11 4 40 14 65 21 209 60 510 224 561 305 21 34 16 63 -14 81 -23 14 -120 134 -192 237 l-69 99 -15 -44 c-22 -67 -116 -248 -159 -304 -44 -58 -95 -87 -156 -87 -59 0 -95 21 -153 89 -69 83 -166 185 -257 272 -44 42 -90 86 -103 98 -14 14 -52 28 -96 38 -39 9 -90 20 -112 25 -55 13 -197 65 -259 96 -16 8 -33 14 -39 14 -5 0 -48 -41 -95 -91 -129 -137 -221 -194 -316 -194 -75 0 -119 20 -173 78 -35 37 -113 150 -113 161 0 3 -15 37 -33 78 -53 115 -70 172 -118 393 -17 73 -18 312 -3 448 10 84 17 109 55 182 24 47 50 85 57 85 8 0 12 -16 12 -49 0 -45 3 -51 35 -70 42 -24 44 -47 15 -135 -35 -104 -25 -310 24 -490 67 -246 186 -476 246 -476 44 0 213 147 337 293 25 29 38 37 66 37 36 0 55 -16 78 -65 30 -63 258 -138 536 -175 125 -17 332 -5 507 29 103 20 108 25 78 92 -24 54 -36 87 -57 164 -9 33 -21 71 -25 85 -5 14 -11 41 -15 60 -4 19 -11 53 -16 75 -31 128 -49 520 -31 662 6 57 5 75 -5 86 -12 12 -10 16 11 31 44 28 36 68 -22 108 -59 41 -118 44 -185 8 -38 -20 -48 -22 -61 -11 -28 23 -18 56 29 102 l45 43 -28 31 c-16 16 -48 61 -72 98 -55 87 -153 163 -450 349 -178 112 -491 268 -536 268 -73 0 -215 -47 -324 -107 -92 -52 -224 -187 -273 -282 l-39 -74 16 -50 c21 -64 20 -77 -4 -77 -11 0 -44 -12 -75 -26 -31 -15 -57 -25 -59 -23 -20 23 -49 107 -53 157 -5 58 -3 68 32 138 20 41 68 116 105 167 l69 91 -16 30 c-31 59 -33 66 -33 90 0 13 -6 29 -14 35 -11 9 -32 -8 -103 -86z m1638 -1116 c27 -21 30 -47 11 -90 -21 -48 -76 -100 -129 -122 -88 -37 -265 -8 -380 62 -58 36 -76 66 -60 100 16 36 44 37 147 3 70 -23 115 -32 170 -33 83 -1 116 11 164 62 32 33 52 38 77 18z m-917 -616 c53 -49 166 -190 166 -206 0 -23 -27 -37 -49 -26 -43 24 -56 14 -112 -86 -66 -118 -80 -153 -68 -175 13 -25 0 -50 -25 -46 -40 6 -70 142 -70 318 1 184 11 231 59 258 28 16 53 6 99 -37z"/>
<path d="M8462 4818 c-7 -7 -12 -21 -12 -33 0 -28 19 -45 50 -45 48 0 66 42 32 73 -22 20 -53 22 -70 5z"/>
<path d="M5742 1244 c-44 -30 -16 -104 40 -104 21 0 58 38 58 60 0 20 -41 60 -61 60 -8 0 -25 -7 -37 -16z"/>
<path d="M3998 906 c-12 -8 -18 -27 -18 -51 0 -43 20 -64 61 -65 33 0 59 29 59 67 0 53 -60 82 -102 49z"/>
</g>
<g id="layer106" fill="#ea9750" stroke="none">
<path d="M6543 8221 c-66 -31 -141 -94 -173 -146 -35 -57 -59 -146 -60 -219 0 -129 43 -220 153 -320 117 -106 151 -176 163 -331 6 -75 -10 -181 -36 -235 -4 -8 -21 -44 -37 -80 -46 -100 -145 -213 -277 -318 -32 -26 -75 -61 -94 -78 l-35 -31 62 -37 c80 -49 101 -72 101 -112 0 -43 -42 -78 -85 -71 -16 3 -73 31 -125 63 -106 64 -383 204 -445 225 -22 7 -44 16 -50 19 -5 4 -30 12 -55 19 -25 7 -56 17 -70 21 -36 12 -84 23 -91 22 -3 0 -26 5 -50 11 -47 14 -245 15 -344 3 -85 -10 -214 -40 -247 -57 -10 -5 -27 -9 -37 -9 -11 0 -22 -4 -25 -9 -3 -4 -20 -12 -38 -16 -37 -9 -33 -8 -68 -22 -14 -6 -45 -19 -70 -29 -42 -17 -185 -89 -310 -156 -90 -49 -140 -82 -140 -95 0 -6 43 -32 95 -58 53 -27 121 -63 152 -81 30 -19 59 -34 64 -34 5 0 9 -5 9 -11 0 -6 6 -9 13 -6 30 11 288 -185 450 -344 l101 -99 28 56 c53 106 83 133 128 119 36 -11 43 -41 21 -83 -47 -85 -59 -128 -59 -208 0 -51 5 -86 13 -97 12 -17 21 -11 115 82 56 56 113 104 127 107 34 9 69 -10 75 -39 6 -31 -2 -46 -71 -127 -104 -123 -162 -228 -210 -381 -14 -46 -14 -212 0 -258 35 -116 106 -211 197 -264 126 -74 216 -74 367 -1 220 105 397 328 470 589 9 33 21 71 25 85 18 53 24 120 23 250 0 137 -8 206 -24 216 -5 3 -9 13 -9 22 0 10 -18 39 -40 66 -43 52 -49 79 -24 114 18 26 75 30 95 6 19 -23 57 -39 124 -53 33 -7 73 -17 88 -22 15 -4 86 -7 157 -6 113 2 132 5 157 23 22 16 29 31 31 64 3 42 2 44 -102 150 -90 91 -106 112 -106 139 0 50 12 64 119 135 55 36 106 72 113 79 7 6 36 30 63 51 92 73 296 280 350 356 67 95 104 169 150 300 37 104 38 107 39 265 0 96 -4 172 -11 190 -6 17 -19 57 -28 90 -40 143 -149 312 -299 461 -144 144 -196 171 -336 173 -85 0 -102 -2 -157 -28z"/>
<path d="M3860 6119 c-57 -42 -70 -71 -35 -77 20 -3 137 -44 185 -64 14 -6 34 -14 45 -18 11 -4 41 -18 67 -30 25 -12 51 -20 56 -16 12 7 229 -108 340 -180 86 -56 195 -137 247 -183 17 -14 51 -44 78 -65 42 -35 46 -36 34 -12 -34 65 -231 251 -392 370 -44 33 -93 72 -109 88 -15 15 -35 28 -42 28 -8 0 -14 3 -14 8 0 4 -10 12 -23 18 -12 6 -60 32 -106 58 -47 25 -90 46 -97 46 -7 0 -14 4 -16 8 -5 12 -98 53 -132 58 -24 3 -43 -5 -86 -37z"/>
<path d="M3655 5969 c-31 -9 -161 -103 -256 -185 -31 -27 -93 -80 -139 -119 -343 -288 -410 -358 -410 -433 0 -45 9 -54 65 -72 22 -7 48 -16 57 -21 10 -5 27 -9 37 -9 11 0 22 -4 25 -9 3 -5 22 -12 42 -16 20 -3 44 -10 53 -15 9 -5 32 -15 51 -23 243 -103 426 -200 661 -350 75 -48 138 -87 141 -87 3 0 8 60 11 133 6 136 34 278 62 306 21 21 75 18 92 -5 11 -15 12 -36 6 -99 -32 -320 20 -531 172 -694 101 -108 177 -157 351 -224 114 -45 135 -49 255 -49 181 1 351 76 431 191 42 60 47 81 21 81 -28 0 -102 28 -166 62 -79 43 -182 154 -229 248 -48 97 -52 111 -65 220 l-8 65 -88 45 c-48 25 -96 53 -107 62 -26 23 -26 70 0 93 20 18 48 18 176 -1 l41 -6 17 47 c14 34 16 53 9 68 -15 33 -186 209 -272 281 -164 136 -320 236 -521 334 -74 36 -137 68 -140 71 -5 7 -53 29 -85 41 -11 4 -31 12 -45 18 -49 20 -124 42 -147 42 -13 0 -23 5 -23 10 0 12 -33 12 -75 -1z m560 -338 c3 -6 13 -9 23 -9 32 3 94 -35 123 -75 16 -22 26 -43 23 -48 -3 -5 0 -9 5 -9 6 0 11 -21 11 -50 0 -31 -4 -50 -12 -50 -6 0 -8 -3 -5 -6 22 -22 -76 -112 -139 -129 -34 -9 -153 -7 -168 3 -6 3 -15 7 -21 7 -14 0 -75 38 -75 47 0 4 -11 19 -24 33 -83 90 -1 264 132 280 12 1 26 5 29 9 10 10 91 7 98 -3z"/>
<path d="M3070 4850 c-8 -5 -27 -10 -41 -10 -32 0 -150 -48 -228 -92 -84 -48 -218 -188 -264 -277 l-39 -74 16 -50 c21 -64 20 -77 -3 -77 -50 0 -160 -69 -226 -141 -47 -53 -120 -159 -142 -209 -75 -169 -88 -229 -87 -415 0 -161 11 -221 61 -320 59 -119 160 -178 210 -122 28 30 36 47 73 157 84 250 190 490 218 490 8 0 12 -16 12 -49 0 -45 3 -51 35 -70 42 -24 44 -47 15 -135 -35 -104 -25 -310 24 -490 67 -246 186 -476 246 -476 44 0 213 147 337 293 25 29 38 37 66 37 36 0 55 -16 78 -65 30 -63 258 -138 536 -175 125 -17 332 -5 507 29 103 20 108 25 78 92 -24 54 -36 87 -57 164 -9 33 -21 71 -25 85 -5 14 -11 41 -15 60 -4 19 -11 53 -16 75 -31 128 -49 520 -31 662 6 57 5 75 -5 86 -12 12 -10 16 11 31 44 28 36 68 -21 108 -60 41 -119 44 -186 8 -38 -20 -48 -22 -61 -11 -28 23 -18 56 29 102 l45 43 -28 31 c-16 16 -48 61 -72 98 -43 67 -109 125 -270 234 -261 177 -651 383 -724 383 -22 0 -48 -5 -56 -10z m931 -1123 c27 -21 30 -47 11 -90 -21 -48 -76 -100 -129 -122 -88 -37 -265 -8 -380 62 -58 36 -76 66 -60 100 16 36 44 37 147 3 70 -23 115 -32 170 -33 83 -1 116 11 164 62 32 33 52 38 77 18z m-917 -616 c53 -49 166 -190 166 -206 0 -23 -27 -37 -49 -26 -43 24 -56 14 -112 -86 -66 -118 -80 -153 -68 -175 13 -25 0 -50 -25 -46 -40 6 -70 142 -70 318 1 184 11 231 59 258 28 16 53 6 99 -37z"/>
</g>
<g id="layer107" fill="#cb4ebb" stroke="none">
<path d="M6543 8221 c-66 -31 -141 -94 -173 -146 -35 -57 -59 -146 -60 -219 0 -129 43 -220 153 -320 117 -106 151 -176 163 -331 6 -75 -10 -181 -36 -235 -4 -8 -21 -44 -37 -80 -46 -100 -145 -213 -277 -318 -32 -26 -75 -61 -94 -78 l-35 -31 62 -37 c80 -49 101 -72 101 -112 0 -43 -42 -78 -85 -71 -16 3 -73 31 -125 63 -106 64 -383 204 -445 225 -22 7 -44 16 -50 19 -5 4 -30 12 -55 19 -25 7 -56 17 -70 21 -36 12 -84 23 -91 22 -3 0 -26 5 -50 11 -47 14 -245 15 -344 3 -85 -10 -214 -40 -247 -57 -10 -5 -27 -9 -37 -9 -11 0 -22 -4 -25 -9 -3 -4 -20 -12 -38 -16 -37 -9 -33 -8 -68 -22 -14 -6 -45 -19 -70 -29 -42 -17 -185 -89 -310 -156 -90 -48 -140 -82 -137 -92 4 -11 7 -13 107 -61 80 -38 85 -40 170 -95 30 -19 58 -35 62 -35 14 0 144 -91 239 -166 54 -43 144 -123 200 -178 l103 -101 28 56 c53 106 83 133 128 119 36 -11 43 -41 21 -83 -47 -85 -59 -128 -59 -208 0 -51 5 -86 13 -97 12 -17 21 -11 115 82 56 56 113 104 127 107 34 9 69 -10 75 -39 6 -31 -2 -46 -71 -127 -104 -123 -162 -228 -210 -381 -14 -46 -14 -212 0 -258 35 -116 106 -211 197 -264 126 -74 216 -74 367 -1 220 105 397 328 470 589 9 33 21 71 25 85 18 53 24 120 23 250 0 137 -8 206 -24 216 -5 3 -9 13 -9 22 0 10 -18 39 -40 66 -43 52 -49 79 -24 114 18 26 75 30 95 6 19 -23 57 -39 124 -53 33 -7 73 -17 88 -22 15 -4 86 -7 157 -6 113 2 132 5 157 23 22 16 29 31 31 64 3 42 2 44 -102 150 -90 91 -106 112 -106 139 0 50 12 64 119 135 55 36 106 72 113 79 7 6 36 30 63 51 92 73 296 280 350 356 67 95 104 169 150 300 37 104 38 107 39 265 0 96 -4 172 -11 190 -6 17 -19 57 -28 90 -40 143 -149 312 -299 461 -144 144 -196 171 -336 173 -85 0 -102 -2 -157 -28z"/>
<path d="M3861 6119 c-30 -22 -57 -42 -59 -44 -5 -4 30 -20 108 -50 25 -10 54 -21 65 -25 11 -4 40 -14 64 -21 24 -7 63 -26 88 -41 24 -16 48 -26 52 -23 11 6 235 -113 339 -181 86 -56 195 -137 247 -183 17 -14 51 -44 78 -65 42 -35 46 -36 34 -12 -22 41 -167 189 -282 286 -67 57 -232 176 -260 188 -16 7 -39 22 -50 32 -11 11 -36 26 -55 35 -19 8 -42 19 -50 24 -22 12 -101 53 -130 67 -14 6 -45 21 -70 33 -25 11 -49 21 -55 21 -5 -1 -35 -19 -64 -41z"/>
<path d="M3655 5969 c-31 -9 -161 -103 -256 -185 -31 -27 -93 -80 -139 -119 -343 -288 -410 -358 -410 -433 0 -45 9 -54 65 -72 22 -7 48 -16 57 -21 10 -5 27 -9 37 -9 11 0 22 -4 25 -9 3 -5 22 -12 42 -16 20 -3 44 -10 53 -15 9 -5 32 -15 51 -23 243 -103 426 -200 661 -350 75 -48 138 -87 141 -87 3 0 8 60 11 133 6 136 34 278 62 306 21 21 75 18 92 -5 11 -15 12 -36 6 -99 -32 -320 20 -531 172 -694 101 -108 177 -157 351 -224 114 -45 135 -49 255 -49 181 1 351 76 431 191 42 60 47 81 21 81 -28 0 -102 28 -166 62 -79 43 -182 154 -229 248 -48 97 -52 111 -65 220 l-8 65 -88 45 c-48 25 -96 53 -107 62 -26 23 -26 70 0 93 20 18 48 18 176 -1 l41 -6 17 47 c14 34 16 53 9 68 -15 33 -186 209 -272 281 -93 77 -200 154 -306 219 -98 61 -402 209 -470 231 -27 8 -70 23 -95 32 -25 9 -58 20 -75 24 -16 4 -37 10 -45 13 -8 3 -28 1 -45 -4z m560 -338 c3 -6 13 -9 23 -9 32 3 94 -35 123 -75 16 -22 26 -43 23 -48 -3 -5 0 -9 5 -9 6 0 11 -21 11 -50 0 -31 -4 -50 -12 -50 -6 0 -8 -3 -5 -6 22 -22 -76 -112 -139 -129 -34 -9 -153 -7 -168 3 -6 3 -15 7 -21 7 -14 0 -75 38 -75 47 0 4 -11 19 -24 33 -83 90 -1 264 132 280 12 1 26 5 29 9 10 10 91 7 98 -3z"/>
<path d="M6374 5422 c-6 -4 -14 -52 -17 -107 -7 -116 -10 -141 -32 -232 -36 -148 -99 -296 -172 -406 -102 -154 -302 -319 -460 -380 -69 -27 -73 -31 -84 -70 -34 -128 -151 -264 -284 -334 -143 -74 -226 -94 -390 -94 -116 0 -215 16 -287 46 -10 4 -18 3 -19 -1 0 -5 -3 -22 -5 -39 -3 -16 -9 -54 -13 -84 -11 -70 -11 -382 0 -452 4 -30 10 -72 13 -94 3 -22 10 -58 15 -80 6 -22 10 -42 11 -45 0 -3 3 -14 5 -25 78 -296 232 -596 409 -793 36 -39 36 -39 96 73 105 197 267 459 413 665 53 75 262 360 294 400 6 8 57 74 112 145 445 573 965 1192 1303 1550 93 99 128 139 128 145 0 15 -242 116 -335 140 -16 5 -55 15 -85 23 -51 14 -83 20 -245 46 -68 12 -355 14 -371 3z"/>
<path d="M7628 4873 c-232 -261 -489 -567 -723 -858 -70 -88 -137 -171 -149 -185 -52 -60 -435 -552 -562 -720 -203 -268 -431 -597 -510 -735 -6 -11 -37 -62 -68 -113 -94 -154 -186 -326 -186 -348 0 -29 241 -164 407 -228 239 -92 465 -131 713 -123 197 6 267 16 485 70 29 7 116 36 143 48 12 5 32 13 45 18 297 120 575 327 790 591 101 125 233 346 288 485 44 108 83 224 94 275 1 3 5 20 9 38 4 19 10 43 11 55 2 12 10 56 17 97 24 141 15 497 -16 646 -79 378 -262 712 -544 992 -62 61 -119 112 -126 112 -8 0 -61 -53 -118 -117z"/>
<path d="M3070 4850 c-8 -5 -27 -10 -41 -10 -31 0 -150 -48 -223 -89 -28 -16 -79 -55 -113 -86 -59 -53 -153 -167 -153 -186 0 -5 79 -9 178 -9 612 0 1113 -183 1363 -497 213 -268 237 -611 74 -1018 -45 -111 -132 -256 -198 -332 -27 -30 -28 -33 -10 -40 24 -11 269 -10 363 0 139 16 255 42 258 59 2 9 -6 36 -16 59 -24 54 -36 87 -57 164 -9 33 -21 71 -25 85 -5 14 -11 41 -15 60 -4 19 -11 53 -16 75 -31 128 -49 520 -31 662 6 57 5 75 -5 86 -12 12 -10 16 11 31 44 28 36 68 -21 108 -60 41 -119 44 -186 8 -38 -20 -48 -22 -61 -11 -28 23 -18 56 29 102 l45 43 -28 31 c-16 16 -48 61 -72 98 -43 67 -109 125 -270 234 -261 177 -651 383 -724 383 -22 0 -48 -5 -56 -10z"/>
</g>
<g id="layer108" fill="#b1dadb" stroke="none">
<path d="M6543 8221 c-66 -31 -141 -94 -173 -146 -35 -57 -59 -146 -60 -219 0 -129 43 -220 153 -320 117 -106 151 -176 163 -331 6 -75 -10 -181 -36 -235 -4 -8 -21 -44 -37 -80 -46 -100 -145 -213 -277 -318 -32 -26 -75 -61 -94 -78 l-35 -31 62 -37 c80 -49 101 -72 101 -112 0 -43 -42 -78 -85 -71 -16 3 -73 31 -125 63 -106 64 -383 204 -445 225 -22 7 -44 16 -50 19 -5 4 -30 12 -55 19 -25 7 -56 17 -70 21 -36 12 -84 23 -91 22 -3 0 -26 5 -50 11 -47 14 -245 15 -344 3 -85 -10 -214 -40 -247 -57 -10 -5 -27 -9 -37 -9 -11 0 -22 -4 -25 -9 -3 -4 -20 -12 -38 -16 -37 -9 -33 -8 -68 -22 -14 -6 -45 -19 -70 -29 -42 -17 -185 -89 -310 -156 -72 -39 -140 -82 -140 -88 0 -3 62 -36 136 -75 241 -123 451 -275 647 -466 l101 -99 28 56 c53 106 83 133 128 119 36 -11 43 -41 21 -83 -47 -85 -59 -128 -59 -208 0 -51 5 -86 13 -97 12 -17 21 -11 115 82 56 56 113 104 127 107 34 9 69 -10 75 -39 6 -31 -2 -46 -71 -127 -104 -123 -162 -228 -210 -381 -14 -46 -14 -212 0 -258 35 -116 106 -211 197 -264 126 -74 216 -74 367 -1 220 105 397 328 470 589 9 33 21 71 25 85 18 53 24 120 23 250 0 137 -8 206 -24 216 -5 3 -9 13 -9 22 0 10 -18 39 -40 66 -43 52 -49 79 -24 114 18 26 75 30 95 6 19 -23 57 -39 124 -53 33 -7 73 -17 88 -22 15 -4 86 -7 157 -6 113 2 132 5 157 23 22 16 29 31 31 64 3 42 2 44 -102 150 -90 91 -106 112 -106 139 0 50 12 64 119 135 55 36 106 72 113 79 7 6 36 30 63 51 92 73 296 280 350 356 67 95 104 169 150 300 37 104 38 107 39 265 0 96 -4 172 -11 190 -6 17 -19 57 -28 90 -40 143 -149 312 -299 461 -144 144 -196 171 -336 173 -85 0 -102 -2 -157 -28z"/>
<path d="M3858 6117 c-32 -22 -55 -44 -50 -49 4 -4 34 -16 67 -27 300 -96 691 -311 890 -489 17 -15 51 -45 78 -66 42 -35 46 -36 34 -12 -22 42 -168 190 -282 286 -152 127 -390 274 -586 360 -49 22 -91 40 -92 39 -1 0 -28 -19 -59 -42z"/>
<path d="M3585 5930 c-62 -44 -131 -99 -200 -160 -23 -19 -79 -66 -125 -105 -339 -283 -410 -358 -410 -433 0 -45 9 -54 65 -72 22 -7 48 -16 57 -21 10 -5 27 -9 37 -9 11 0 22 -4 25 -9 3 -5 22 -12 42 -16 20 -3 44 -10 53 -15 9 -5 32 -15 51 -23 243 -103 426 -200 661 -350 75 -48 138 -87 141 -87 3 0 8 60 11 133 6 136 34 278 62 306 21 21 75 18 92 -5 11 -15 12 -36 6 -99 -32 -320 20 -531 172 -694 101 -108 177 -157 351 -224 114 -45 135 -49 255 -49 181 1 351 76 431 191 42 60 47 81 21 81 -28 0 -102 28 -166 62 -79 43 -182 154 -229 248 -48 97 -52 111 -65 220 l-8 65 -88 45 c-48 25 -96 53 -107 62 -26 23 -26 70 0 93 20 18 48 18 176 -1 l41 -6 17 47 c14 34 16 53 9 68 -15 33 -186 209 -272 281 -255 212 -533 363 -883 480 -133 45 -153 44 -223 -4z m630 -299 c3 -6 13 -9 23 -9 32 3 94 -35 123 -75 16 -22 26 -43 23 -48 -3 -5 0 -9 5 -9 6 0 11 -21 11 -50 0 -31 -4 -50 -12 -50 -6 0 -8 -3 -5 -6 22 -22 -76 -112 -139 -129 -34 -9 -153 -7 -168 3 -6 3 -15 7 -21 7 -14 0 -75 38 -75 47 0 4 -11 19 -24 33 -83 90 -1 264 132 280 12 1 26 5 29 9 10 10 91 7 98 -3z"/>
<path d="M2375 5619 c-4 -6 -4 -26 -1 -45 6 -27 12 -34 29 -34 30 0 60 48 46 73 -11 19 -64 24 -74 6z"/>
<path d="M3070 4850 c-8 -5 -27 -10 -41 -10 -31 0 -150 -48 -223 -89 -28 -16 -79 -55 -113 -86 -59 -53 -153 -167 -153 -186 0 -5 79 -9 178 -9 612 0 1113 -183 1363 -497 213 -268 237 -611 74 -1018 -45 -111 -132 -256 -198 -332 -27 -30 -28 -33 -10 -40 24 -11 269 -10 363 0 139 16 255 42 258 59 2 9 -6 36 -16 59 -24 54 -36 87 -57 164 -9 33 -21 71 -25 85 -5 14 -11 41 -15 60 -4 19 -11 53 -16 75 -21 88 -30 189 -35 383 -6 201 -6 202 -29 208 -13 3 -33 16 -45 29 -31 33 -18 66 51 129 76 68 78 92 12 138 -60 41 -119 44 -186 8 -38 -20 -48 -22 -61 -11 -28 23 -18 56 29 102 l45 43 -28 31 c-16 16 -48 61 -72 98 -43 67 -109 125 -270 234 -261 177 -651 383 -724 383 -22 0 -48 -5 -56 -10z"/>
<path d="M8467 4812 c-32 -35 -14 -72 33 -72 33 0 59 45 38 66 -24 23 -54 25 -71 6z"/>
<path d="M2520 4269 c-80 -11 -162 -60 -235 -140 -47 -53 -120 -159 -142 -209 -75 -169 -88 -229 -87 -415 0 -161 11 -221 61 -320 59 -119 160 -178 210 -122 28 30 36 47 73 157 60 179 102 285 153 387 29 57 55 103 60 103 4 0 7 5 7 11 0 6 13 38 29 72 15 34 38 82 49 107 34 74 62 171 62 215 0 103 -107 172 -240 154z"/>
<path d="M4470 2439 c-25 -5 -79 -14 -120 -19 -41 -6 -88 -12 -105 -14 -27 -4 -65 -37 -65 -56 0 -12 40 -63 120 -154 l75 -85 20 22 c45 51 155 271 155 310 0 8 -19 8 -80 -4z"/>
<path d="M3470 2021 c-82 -10 -112 -22 -140 -58 -16 -21 -21 -37 -17 -64 22 -166 404 -217 554 -74 38 37 43 47 43 87 0 50 -13 67 -72 91 -45 19 -271 29 -368 18z"/>
<path d="M3998 906 c-24 -18 -24 -78 0 -99 26 -24 68 -21 86 5 46 65 -25 141 -86 94z"/>
</g>
<g id="layer109" fill="#f7f6f3" stroke="none">
<path d="M6599 8234 c-93 -43 -127 -63 -155 -91 -100 -99 -145 -227 -124 -344 22 -119 80 -209 183 -284 15 -11 27 -24 28 -30 1 -24 61 -56 121 -66 243 -40 417 91 519 393 l22 67 -26 39 c-15 21 -57 71 -95 111 -37 41 -71 80 -75 87 -4 8 -14 14 -22 14 -7 0 -15 3 -17 8 -6 15 -106 82 -122 82 -10 0 -27 5 -38 11 -28 15 -168 17 -199 3z"/>
<path d="M7241 7715 c-75 -181 -177 -301 -305 -359 -70 -32 -175 -50 -245 -42 -31 4 -60 4 -63 1 -3 -4 0 -31 7 -62 15 -63 60 -116 160 -188 130 -93 266 -111 395 -52 70 32 175 120 164 138 -2 4 3 36 11 71 18 78 19 155 1 233 -7 33 -14 67 -14 75 0 13 -9 43 -32 105 -5 11 -19 45 -33 75 l-25 55 -21 -50z"/>
<path d="M6605 6988 c-14 -46 -31 -126 -37 -179 -13 -111 -6 -139 51 -202 44 -48 88 -67 161 -67 80 0 235 54 278 96 7 8 22 19 33 24 10 6 19 15 19 20 0 8 81 121 100 140 11 11 62 112 58 115 -2 3 -33 -8 -68 -22 -55 -23 -80 -27 -160 -27 -135 0 -240 42 -357 140 l-52 44 -26 -82z"/>
<path d="M5054 6623 c-27 -7 -64 -11 -81 -8 -21 4 -41 0 -57 -10 -14 -9 -35 -16 -48 -14 -13 1 -36 -3 -51 -9 -16 -7 -32 -12 -37 -12 -16 0 -162 -50 -207 -71 -24 -10 -45 -19 -48 -19 -7 0 -244 -117 -290 -143 -127 -72 -156 -90 -160 -98 -3 -4 32 -27 77 -50 46 -23 118 -61 160 -85 43 -24 79 -44 82 -44 2 0 10 17 17 38 64 195 397 417 729 486 41 9 87 16 101 16 14 0 34 7 45 15 19 14 19 14 -1 16 -88 6 -191 2 -231 -8z"/>
<path d="M3868 6113 c-32 -21 -58 -41 -58 -45 0 -3 28 -15 63 -26 74 -23 267 -101 284 -114 15 -12 173 0 173 13 0 19 -317 188 -382 204 -16 4 -40 -6 -80 -32z"/>
<path d="M3610 5936 c-25 -20 -48 -36 -51 -36 -4 0 -21 -13 -39 -30 -18 -16 -38 -30 -46 -30 -7 0 -17 -7 -22 -16 -11 -19 -154 -144 -165 -144 -4 0 -21 -16 -38 -35 -17 -19 -35 -35 -40 -35 -5 0 -22 -13 -37 -30 -16 -16 -32 -30 -36 -30 -4 0 -20 -16 -37 -35 -17 -19 -35 -35 -40 -35 -13 0 -145 -138 -180 -187 -31 -44 -37 -84 -16 -101 6 -5 38 -18 69 -27 32 -9 60 -21 64 -26 3 -5 9 -7 14 -4 5 3 20 0 32 -7 13 -6 28 -13 33 -13 15 -2 85 -30 128 -51 16 -8 33 -14 39 -14 14 0 316 -150 393 -196 33 -19 68 -37 78 -41 9 -3 17 -12 17 -20 0 -8 4 -11 10 -8 5 3 64 -30 130 -74 100 -65 121 -75 118 -58 -4 30 -255 220 -597 453 -88 60 -160 114 -161 120 0 13 159 168 285 279 140 123 302 240 430 310 84 46 90 41 -105 108 -157 54 -176 55 -230 13z"/>
<path d="M5358 5856 c-75 -17 -150 -66 -187 -124 -33 -52 -47 -109 -32 -132 14 -21 52 -5 219 89 146 82 264 141 281 141 17 0 13 27 -5 34 -27 10 -216 5 -276 -8z"/>
<path d="M5980 5741 c-41 -15 -82 -30 -90 -34 -23 -9 -187 -66 -250 -87 -202 -68 -260 -96 -244 -122 3 -4 -23 -43 -58 -86 -35 -42 -80 -99 -99 -127 -37 -54 -104 -185 -101 -198 1 -4 -4 -20 -12 -36 -11 -21 -14 -60 -13 -157 3 -136 14 -177 71 -259 12 -16 26 -39 31 -50 6 -11 20 -24 33 -30 12 -5 22 -13 22 -17 0 -10 106 -58 128 -58 9 -1 28 -7 42 -15 32 -19 61 -19 96 0 16 8 36 15 45 15 28 0 122 43 174 79 72 50 275 258 275 282 0 5 11 27 25 49 14 22 25 44 25 48 0 5 9 34 21 63 45 116 61 161 61 179 0 8 5 33 11 55 6 22 9 46 8 54 -1 7 1 20 4 30 8 18 9 197 2 221 -3 8 -10 40 -17 70 -12 52 -31 88 -74 138 -24 27 -23 27 -116 -7z m69 -296 c54 -27 71 -73 71 -191 0 -57 -4 -112 -9 -122 -5 -9 -14 -35 -21 -57 -13 -42 -79 -186 -90 -195 -3 -3 -22 -27 -42 -55 -153 -212 -364 -281 -432 -143 -24 48 -21 202 5 286 23 74 69 175 81 180 4 2 8 8 8 14 0 31 120 171 206 238 68 54 168 74 223 45z"/>
<path d="M4377 5116 c-29 -8 -62 -27 -83 -47 -39 -38 -74 -122 -74 -179 0 -67 17 -58 178 95 40 38 87 78 103 88 36 23 37 35 3 47 -33 13 -68 12 -127 -4z"/>
<path d="M4820 4831 c-149 -40 -267 -126 -317 -231 -34 -70 -38 -194 -9 -280 37 -109 128 -222 212 -265 21 -11 45 -24 52 -29 7 -5 23 -11 35 -12 12 -2 47 -7 77 -12 33 -6 77 -6 110 0 30 5 68 10 83 12 15 2 33 8 40 13 7 5 32 16 57 23 73 23 177 108 218 179 12 20 12 25 0 32 -7 5 -15 9 -18 10 -3 0 -17 2 -31 4 -26 3 -79 27 -128 56 -86 51 -172 145 -217 238 -20 42 -41 84 -46 94 -5 11 -7 21 -4 24 3 3 -1 18 -9 34 -9 16 -14 49 -12 76 3 57 -3 59 -93 34z"/>
<path d="M2980 4815 c-25 -8 -56 -20 -70 -26 -23 -11 -33 -15 -85 -43 -95 -51 -265 -221 -265 -266 0 -7 30 -10 92 -8 l92 3 27 52 c15 29 34 62 42 73 22 31 105 118 171 178 63 56 63 58 -4 37z"/>
<path d="M8475 4808 c-30 -16 -30 -16 -10 -38 22 -24 48 -26 65 -5 10 13 10 19 -5 35 -21 23 -23 23 -50 8z"/>
<path d="M3829 4432 c-49 -32 -149 -124 -149 -137 0 -7 38 -34 84 -60 479 -268 616 -719 391 -1280 -16 -38 -40 -90 -53 -115 -36 -66 -130 -205 -152 -225 -11 -10 -18 -20 -16 -24 8 -12 371 -4 410 9 20 6 48 9 62 6 15 -4 34 0 49 10 14 9 36 14 49 12 13 -3 31 1 40 8 18 12 17 13 -20 109 -4 11 -8 28 -9 37 -1 10 -8 24 -14 32 -6 8 -11 18 -9 22 1 5 -3 19 -10 32 -7 12 -12 28 -10 35 1 6 -4 23 -11 36 -7 12 -11 32 -8 42 3 10 1 22 -5 25 -5 3 -7 12 -4 19 2 7 0 17 -4 21 -5 5 -12 38 -15 73 -3 35 -8 68 -11 73 -10 16 -19 214 -17 350 2 127 2 128 -21 134 -13 3 -34 16 -46 29 -30 32 -19 64 43 122 36 33 52 56 54 78 3 26 -2 33 -41 57 -58 35 -119 39 -166 10 -43 -27 -72 -28 -95 -2 -24 27 -14 57 34 105 23 22 41 43 41 47 0 4 -13 20 -28 35 -31 30 -102 137 -102 153 0 6 -6 10 -14 10 -8 0 -27 14 -43 30 -15 17 -33 30 -40 30 -6 0 -18 8 -25 18 -12 16 -72 52 -87 52 -3 0 -18 -8 -32 -18z"/>
<path d="M2518 4263 c-112 -36 -223 -119 -276 -205 -9 -16 -20 -28 -24 -28 -4 0 -8 -5 -8 -11 0 -5 -11 -26 -25 -46 -41 -61 -89 -195 -114 -321 -21 -102 -9 -297 24 -387 19 -53 49 -113 72 -143 24 -32 89 -72 116 -72 33 0 64 53 111 187 61 178 102 285 130 342 48 97 85 161 105 183 12 12 21 25 21 29 0 5 16 41 35 81 46 98 75 192 75 243 0 107 -128 185 -242 148z"/>
<path d="M4392 2416 c-9 -5 -47 -10 -85 -12 -72 -2 -107 -20 -107 -55 0 -15 84 -119 165 -205 13 -14 35 -6 35 12 0 8 3 14 8 14 4 0 12 10 17 23 6 12 23 45 37 72 35 67 68 143 68 155 0 12 -115 9 -138 -4z"/>
<path d="M3461 2008 c-78 -11 -119 -31 -132 -66 -32 -83 62 -161 223 -185 142 -20 302 34 341 116 34 73 -15 118 -146 136 -91 13 -195 12 -286 -1z"/>
<path d="M4013 903 c-33 -22 -31 -72 3 -97 26 -19 26 -18 56 12 35 34 33 50 -9 80 -25 18 -30 18 -50 5z"/>
</g>


</svg>